#!OML:ASF X:\für Bonn\!DataBase\2005_08_10_Bjorn_Final\c3d\bjorn.ASF
:FULLY-SPECIFIED
:DEGREES
109
root 2.59502 17.862 3.83305 -197.253 6.11783 180.586
lowerback -11.3155 -0.893086 1.24071
upperback 10.0755 -0.645495 -1.36199
thorax 17.8996 0.249297 -2.35772
lowerneck 0.574763 2.79375 9.87584
upperneck 21.0623 6.1261 -4.82601
head 6.74263 4.07582 -2.77977
rclavicle -1.33558e-016 -1.19271e-015
rhumerus -305.668 18.7992 280.356
rradius 87.1703
rwrist 25.1759
rhand -51.4595 41.3574
rfingers 7.12502
rthumb -23.9893 12.8363
lclavicle -1.33558e-016 -1.19271e-015
lhumerus 49.0034 -28.2082 80.8525
lradius 99.2659
lwrist 18.4978
lhand -42.3671 -18.8337
lfingers 7.12502
lthumb -15.2488 10.5843
rfemur 16.7008 -0.430199 18.3924
rtibia 35.2961
rfoot -33.1225 11.2357
rtoes -14.3282
lfemur -15.3695 -11.2734 -10.4607
ltibia 44.5994
lfoot -11.695 -2.51056
ltoes -25.2234
110
root 2.5818 17.8155 3.74551 -197.478 6.45934 180.769
lowerback -11.2985 -0.907447 1.37649
upperback 10.2641 -0.681363 -1.25836
thorax 18.1289 0.257353 -2.32345
lowerneck 0.581884 2.91433 9.94871
upperneck 20.6792 6.22682 -4.9446
head 6.63201 4.08928 -2.82741
rclavicle -2.65378e-014 -2.54444e-014
rhumerus -305.659 18.9472 280.333
rradius 87.4411
rwrist 25.2341
rhand -51.5234 41.5368
rfingers 7.12502
rthumb -24.0506 13.0238
lclavicle -2.65378e-014 -2.54444e-014
lhumerus 49.0932 -28.4333 80.5621
lradius 99.9034
lwrist 18.262
lhand -42.5826 -18.9786
lfingers 7.12502
lthumb -15.4563 10.4235
rfemur 17.1178 -0.307022 18.5165
rtibia 35.547
rfoot -33.4075 11.5033
rtoes -14.583
lfemur -15.4554 -11.4715 -10.087
ltibia 45.0492
lfoot -11.605 -2.9064
ltoes -24.7872
111
root 2.56829 17.768 3.65773 -197.685 6.77596 180.952
lowerback -11.3028 -0.91799 1.50372
upperback 10.4563 -0.707807 -1.16566
thorax 18.379 0.270879 -2.2943
lowerneck 0.556892 3.02603 10.0656
upperneck 20.3156 6.3159 -5.08624
head 6.53493 4.09942 -2.88953
rclavicle -2.4859e-014 -3.53837e-014
rhumerus -305.677 19.0421 280.291
rradius 87.7084
rwrist 25.3556
rhand -51.592 41.6481
rfingers 7.12502
rthumb -24.1164 13.1438
lclavicle -2.4859e-014 -3.53837e-014
lhumerus 49.2353 -28.6821 80.2814
lradius 100.472
lwrist 18.054
lhand -42.8003 -18.9341
lfingers 7.12502
lthumb -15.666 10.4517
rfemur 17.5124 -0.212517 18.6269
rtibia 35.8266
rfoot -33.7025 11.7249
rtoes -14.9461
lfemur -15.5653 -11.6586 -9.72441
ltibia 45.5415
lfoot -11.5309 -3.336
ltoes -24.3088
112
root 2.55341 17.7173 3.56922 -197.923 7.12196 181.156
lowerback -11.2561 -0.930899 1.65932
upperback 10.6611 -0.742828 -1.05065
thorax 18.6118 0.283622 -2.25551
lowerneck 0.505234 3.14984 10.1559
upperneck 19.9457 6.42062 -5.24719
head 6.4419 4.11259 -2.95174
rclavicle -3.92522e-016 -5.56597e-015
rhumerus -305.667 19.1628 280.297
rradius 87.9863
rwrist 25.4545
rhand -51.6446 41.6988
rfingers 7.12502
rthumb -24.1667 13.2012
lclavicle -3.92522e-016 -5.56597e-015
lhumerus 49.3751 -28.9026 80.0465
lradius 100.973
lwrist 17.8207
lhand -43.0874 -18.791
lfingers 7.12502
lthumb -15.9425 10.5729
rfemur 17.9318 -0.0936165 18.7592
rtibia 36.1249
rfoot -33.9903 12.0053
rtoes -15.1746
lfemur -15.6272 -11.7955 -9.34856
ltibia 46.0863
lfoot -11.4592 -3.77642
ltoes -23.6124
113
root 2.53708 17.6651 3.47954 -198.158 7.47138 181.37
lowerback -11.177 -0.930097 1.83479
upperback 10.8389 -0.764858 -0.938282
thorax 18.7889 0.302942 -2.22618
lowerneck 0.46158 3.25197 10.2747
upperneck 19.6041 6.50569 -5.42712
head 6.35681 4.12067 -3.02579
rclavicle -1.14511e-014 -6.75868e-015
rhumerus -305.672 19.2702 280.324
rradius 88.2242
rwrist 25.4611
rhand -51.6502 41.7592
rfingers 7.12502
rthumb -24.1722 13.2623
lclavicle -1.14511e-014 -6.75868e-015
lhumerus 49.4772 -29.1323 79.8848
lradius 101.386
lwrist 17.5978
lhand -43.3903 -18.6818
lfingers 7.12502
lthumb -16.2342 10.6585
rfemur 18.347 0.0116721 18.876
rtibia 36.4431
rfoot -34.2508 12.3873
rtoes -15.1713
lfemur -15.6788 -11.866 -8.97711
ltibia 46.6874
lfoot -11.437 -4.24187
ltoes -23.0676
114
root 2.51996 17.6127 3.38945 -198.416 7.83015 181.603
lowerback -11.0479 -0.933877 2.03671
upperback 11.0147 -0.795779 -0.827043
thorax 18.9291 0.322184 -2.21367
lowerneck 0.381896 3.36313 10.4108
upperneck 19.2881 6.60294 -5.61995
head 6.28867 4.13545 -3.10481
rclavicle 7.87218e-015 1.51076e-014
rhumerus -305.682 19.3904 280.34
rradius 88.4478
rwrist 25.4618
rhand -51.6486 41.7185
rfingers 7.12502
rthumb -24.1706 13.2214
lclavicle 7.87218e-015 1.51076e-014
lhumerus 49.5843 -29.3599 79.7092
lradius 101.72
lwrist 17.3571
lhand -43.7307 -18.592
lfingers 7.12502
lthumb -16.5619 10.7212
rfemur 18.7904 0.128981 19.0244
rtibia 36.7609
rfoot -34.5274 12.674
rtoes -15.4322
lfemur -15.6848 -11.8845 -8.6076
ltibia 47.3482
lfoot -11.4975 -4.65744
ltoes -22.8857
115
root 2.50103 17.5605 3.29876 -198.654 8.17807 181.872
lowerback -10.9141 -0.940394 2.27202
upperback 11.1727 -0.841339 -0.701627
thorax 19.0422 0.33661 -2.20679
lowerneck 0.33635 3.46916 10.4916
upperneck 18.9537 6.69105 -5.7638
head 6.20527 4.1465 -3.16014
rclavicle -7.97623e-015 1.07344e-014
rhumerus -305.679 19.5139 280.346
rradius 88.6315
rwrist 25.4091
rhand -51.6111 41.6043
rfingers 7.12502
rthumb -24.1346 13.1025
lclavicle -7.97623e-015 1.07344e-014
lhumerus 49.6558 -29.5769 79.5155
lradius 102.02
lwrist 17.1561
lhand -44.1096 -18.6097
lfingers 7.12502
lthumb -16.9267 10.6727
rfemur 19.2342 0.223085 19.1934
rtibia 37.0656
rfoot -34.7906 12.9684
rtoes -15.6459
lfemur -15.6916 -11.8699 -8.22599
ltibia 48.0637
lfoot -11.6252 -5.03758
ltoes -22.9852
116
root 2.48128 17.5096 3.20728 -198.901 8.54138 182.149
lowerback -10.7888 -0.955454 2.51211
upperback 11.3514 -0.897139 -0.565517
thorax 19.1887 0.349093 -2.19191
lowerneck 0.211635 3.59491 10.5518
upperneck 18.6341 6.7975 -5.92155
head 6.14194 4.16147 -3.21321
rclavicle -1.28527e-014 4.57205e-015
rhumerus -305.635 19.6588 280.314
rradius 88.7649
rwrist 25.3959
rhand -51.5467 41.543
rfingers 7.12502
rthumb -24.0729 13.033
lclavicle -1.28527e-014 4.57205e-015
lhumerus 49.7566 -29.768 79.3175
lradius 102.275
lwrist 16.881
lhand -44.5537 -18.607
lfingers 7.12502
lthumb -17.3541 10.6382
rfemur 19.7057 0.334515 19.3682
rtibia 37.3518
rfoot -35.021 13.308
rtoes -15.8183
lfemur -15.6401 -11.8256 -7.86557
ltibia 48.829
lfoot -11.8593 -5.31808
ltoes -23.5822
